<?xml version="1.0" encoding="utf-8"?>
<!-- Generator: Adobe Illustrator 25.0.1, SVG Export Plug-In . SVG Version: 6.00 Build 0)  -->
<svg version="1.1" id="Camada_1" xmlns="http://www.w3.org/2000/svg" xmlns:xlink="http://www.w3.org/1999/xlink" x="0px" y="0px"
	 viewBox="0 0 841.89 199.29" style="enable-background:new 0 0 841.89 199.29;" xml:space="preserve">
<style type="text/css">
	.st0{fill:#AB589E;}
	.st1{fill:#5974AB;}
	.st2{fill:#BD6DA9;}
	.st3{fill:#EB8EBB;}
	.st4{fill:#5E58A3;}
	.st5{fill:#7785AA;}
</style>
<g>
	<g>
		<g>
			<path class="st0" d="M681.11,113.85V89.19c0-4.28,1.52-7.93,4.55-10.95c3.02-3.04,6.66-4.55,10.92-4.55
				c3.05,0,5.85,0.83,8.4,2.49c2.48,1.61,4.34,3.75,5.61,6.42c1.26-2.67,3.14-4.81,5.61-6.42c2.55-1.66,5.34-2.49,8.37-2.49
				c4.28,0,7.93,1.52,10.95,4.55c3.04,3.01,4.55,6.67,4.55,10.95v24.66h-2.98V89.19c0-3.45-1.22-6.4-3.66-8.86
				c-2.46-2.44-5.41-3.66-8.86-3.66s-6.39,1.22-8.83,3.66c-2.44,2.46-3.66,5.41-3.66,8.86v24.66h-2.98V89.19
				c0-3.45-1.22-6.4-3.66-8.86c-2.46-2.44-5.41-3.66-8.86-3.66s-6.4,1.22-8.83,3.66c-2.44,2.46-3.66,5.41-3.66,8.86v24.66H681.11z"
				/>
			<path class="st0" d="M766.47,73.72c5.4,0,10.09,1.83,14.06,5.5c3.96,3.63,6.18,8.1,6.67,13.41c0.07,0.74,0.11,1.38,0.11,1.92
				l-0.03,0.54l-0.03,0.52h-38.59c0.27,4.7,2.11,8.67,5.53,11.92c3.45,3.25,7.54,4.88,12.27,4.88c3.59,0,6.89-1,9.89-3.01
				c2.91-1.95,5.06-4.53,6.45-7.72h3.17c-1.48,4.05-3.97,7.33-7.48,9.84c-3.59,2.58-7.6,3.88-12.03,3.88
				c-5.74,0-10.66-2.04-14.74-6.12c-4.07-4.07-6.1-8.97-6.1-14.71c0-5.75,2.03-10.65,6.1-14.71
				C755.81,75.76,760.73,73.72,766.47,73.72z M784.22,92.64c-0.49-4.5-2.41-8.28-5.77-11.33c-3.41-3.07-7.41-4.61-11.98-4.61
				c-4.59,0-8.58,1.53-11.98,4.61c-3.38,3.05-5.3,6.83-5.77,11.33H784.22z"/>
		</g>
		<g>
			<path class="st1" d="M207.71,141.62V86.84c0-9.47,3.4-17.69,10.1-24.42c6.74-6.71,14.95-10.1,24.42-10.1
				c9.47,0,17.67,3.4,24.38,10.1c6.73,6.73,10.14,14.94,10.14,24.42s-3.42,17.68-10.15,24.38c-6.7,6.73-14.9,10.14-24.37,10.14
				c-6.16,0-11.97-1.57-17.25-4.68c-3.52-2.03-6.58-4.6-9.13-7.66v32.6H207.71z M242.23,60.42c-7.35,0-13.46,2.54-18.65,7.76
				c-5.2,5.21-7.73,11.31-7.73,18.66c0,7.32,2.53,13.43,7.73,18.66c5.2,5.2,11.3,7.72,18.65,7.72c7.35,0,13.45-2.53,18.66-7.73
				c5.2-5.22,7.72-11.32,7.72-18.65c0-7.35-2.52-13.46-7.72-18.66C255.69,62.95,249.59,60.42,242.23,60.42z"/>
			<path class="st1" d="M282.05,121.28V82.06c0-8.17,2.94-15.25,8.74-21.05c5.8-5.8,12.88-8.74,21.05-8.74c2.58,0,5.15,0.34,7.65,1
				l1.28,0.34v8.56l-2.25-0.73c-2.18-0.71-4.43-1.06-6.68-1.06c-6.03,0-11.03,2.08-15.28,6.36c-4.29,4.28-6.37,9.3-6.37,15.33v39.22
				H282.05z"/>
			<path class="st1" d="M355.47,121.36c-9.47,0-17.69-3.42-24.42-10.14c-6.7-6.71-10.1-14.9-10.1-24.38c0-9.48,3.4-17.68,10.1-24.38
				c6.73-6.73,14.94-10.14,24.42-10.14c9.48,0,17.68,3.42,24.38,10.15c6.73,6.7,10.14,14.9,10.14,24.37
				c0,9.47-3.42,17.67-10.15,24.38C373.14,117.95,364.94,121.36,355.47,121.36z M355.47,60.46c-7.35,0-13.46,2.52-18.65,7.72
				c-5.2,5.2-7.73,11.3-7.73,18.66c0,7.36,2.52,13.46,7.73,18.65c5.2,5.2,11.3,7.73,18.65,7.73c7.35,0,13.45-2.52,18.65-7.73
				c5.2-5.2,7.73-11.3,7.73-18.65c0-7.35-2.52-13.46-7.73-18.66C368.92,62.98,362.82,60.46,355.47,60.46z"/>
			<path class="st1" d="M398.89,121.28c-2.48,0-5.05-0.34-7.63-1l-1.3-0.34v-8.65l2.24,0.71c2.18,0.69,4.43,1.04,6.69,1.04
				c6.03,0,11.03-2.09,15.29-6.39c4.27-4.36,6.36-9.45,6.36-15.56V52.47h8.14v38.63c0,8.3-2.94,15.48-8.74,21.35
				C414.11,118.31,407.03,121.28,398.89,121.28z"/>
			<path class="st1" d="M468.49,121.36c-9.47,0-17.69-3.42-24.42-10.14c-6.7-6.71-10.1-14.9-10.1-24.38c0-9.48,3.4-17.68,10.1-24.38
				c6.73-6.73,14.94-10.14,24.42-10.14c8.91,0,16.75,3.07,23.31,9.12c6.52,5.98,10.23,13.46,11.04,22.22
				c0.12,1.22,0.18,2.29,0.18,3.19l-0.28,3.37l-1.52,0.02h-58.85c0.74,6.19,3.37,11.37,8.01,15.79c5.07,4.78,11.17,7.2,18.13,7.2
				c5.28,0,10.19-1.49,14.61-4.45c4.28-2.86,7.48-6.71,9.53-11.4l0.45-1.04h8.59l-0.85,2.32c-2.44,6.67-6.61,12.15-12.39,16.29
				C482.49,119.2,475.79,121.36,468.49,121.36z M494.44,82.09c-1.02-5.79-3.79-10.77-8.25-14.83c-5.01-4.51-10.97-6.8-17.69-6.8
				c-6.84,0-12.63,2.23-17.69,6.8c-4.49,4.05-7.26,9.03-8.26,14.83H494.44z"/>
			<path class="st1" d="M583.04,121.36c-9.47,0-17.69-3.4-24.42-10.1c-6.71-6.74-10.1-14.95-10.1-24.42c0-9.48,3.4-17.68,10.1-24.38
				c6.73-6.73,14.94-10.14,24.42-10.14c9.48,0,17.68,3.42,24.38,10.15c6.73,6.7,10.14,14.9,10.14,24.37v34.44h-8.14v-12.26
				c-2.56,3.06-5.62,5.64-9.13,7.71C594.98,119.8,589.18,121.36,583.04,121.36z M583.04,60.46c-7.35,0-13.46,2.52-18.65,7.72
				c-5.2,5.2-7.73,11.3-7.73,18.66c0,7.36,2.52,13.46,7.73,18.65c5.2,5.2,11.3,7.73,18.65,7.73c7.35,0,13.45-2.52,18.65-7.73
				c5.2-5.2,7.73-11.3,7.73-18.65c0-7.35-2.52-13.46-7.73-18.66C596.5,62.98,590.4,60.46,583.04,60.46z"/>
			<path class="st1" d="M624.78,121.28V82.06c0-8.17,2.94-15.25,8.74-21.05c5.8-5.8,12.88-8.74,21.05-8.74c2.58,0,5.15,0.34,7.65,1
				l1.28,0.34v8.56l-2.25-0.73c-2.18-0.71-4.43-1.06-6.68-1.06c-6.03,0-11.03,2.08-15.28,6.36c-4.29,4.28-6.37,9.3-6.37,15.33v39.22
				H624.78z"/>
			<path class="st1" d="M548.77,62.76v-8.14h-32.28v-2.3h-8.19v43.14c0,7.07,2.57,13.21,7.63,18.24c5,5,11.12,7.54,18.19,7.54
				c5.12,0,9.79-1.34,13.86-3.99l0.79-0.51v-10.75l-2.88,2.61c-3.34,3.02-7.19,4.5-11.77,4.5c-4.91,0-8.99-1.69-12.47-5.17
				c-3.48-3.47-5.17-7.56-5.17-12.47v-32.7H548.77z"/>
		</g>
		<circle class="st0" cx="665.04" cy="94.55" r="2.1"/>
	</g>
	<g>
		<path class="st2" d="M185.24,63.11c0.97,1.26,1.18,2.74,1.18,4.27c0,22.42,0,44.84,0.01,67.26c0,3.62-1.83,6.01-4.86,7.77
			c-14.64,8.5-29.25,17.05-43.87,25.58c-4.21,2.46-8.44,4.9-12.63,7.39c-3.2,1.9-6.3,1.9-9.52-0.02
			c-6.9-4.11-13.84-8.16-20.81-12.15c-1.15-0.66-1.65-1.33-1.63-2.71c0.08-7.42,0.04-14.85,0.04-22.27c0.87-0.21,1.36,0.37,1.92,0.7
			c6.83,3.97,13.67,7.91,20.46,11.94c3.26,1.93,6.38,2.05,9.7,0.09c11.66-6.87,23.34-13.72,35.07-20.46
			c3.55-2.04,5.13-4.84,5.1-8.91c-0.08-13.41-0.05-26.82-0.01-40.23c0.01-2.03-0.24-3.97-1.04-5.83c2.84-1.06,5.2-2.95,7.77-4.48
			C176.5,68.45,180.67,65.45,185.24,63.11z"/>
		<path class="st3" d="M185.24,63.11c-4.57,2.34-8.74,5.34-13.14,7.95c-2.57,1.52-4.93,3.42-7.77,4.48
			c-1.25-1.59-2.85-2.73-4.59-3.74c-11.52-6.69-23.04-13.38-34.52-20.15c-3.3-1.95-6.4-1.93-9.69,0.01
			c-11.84,6.97-23.71,13.87-35.59,20.77c-1.4,0.81-2.47,1.94-3.52,3.12c-0.38-0.13-0.81-0.18-1.15-0.39
			c-3.73-2.32-7.4-4.72-11.17-6.97c-2.88-1.71-5.5-3.86-8.65-5.11c0.7-1.51,1.97-2.43,3.35-3.23c5.46-3.19,10.92-6.37,16.38-9.56
			c13.58-7.92,27.17-15.83,40.73-23.78c3.03-1.77,5.94-1.75,8.95,0.01c12.91,7.59,25.83,15.16,38.75,22.71
			c6.1,3.56,12.22,7.08,18.33,10.62C183.33,60.66,184.63,61.54,185.24,63.11z"/>
		<path class="st4" d="M142.47,89.35c0.56,0.87,0.52,1.87,0.52,2.83c0.02,5.86-0.01,11.72,0.02,17.59c0.01,3.05-1.28,5.24-3.93,6.76
			c-4.94,2.82-9.85,5.68-14.73,8.59c-2.8,1.67-5.45,1.67-8.26-0.03c-4.76-2.88-9.58-5.66-14.41-8.43c-2.8-1.6-4.2-3.84-4.13-7.16
			c0.12-5.8,0.03-11.61,0.02-17.41c0-0.93,0.01-1.84,0.41-2.7c0.62-0.11,1.12,0.19,1.6,0.5c6.55,4.1,13.1,8.18,19.62,12.32
			c0.95,0.6,1.68,0.67,2.64,0.03c3.57-2.37,7.15-4.74,10.8-6.98C135.9,93.25,139.01,91,142.47,89.35z"/>
		<path class="st2" d="M55.46,63.08c3.15,1.24,5.77,3.39,8.65,5.11c3.77,2.25,7.44,4.65,11.17,6.97c0.33,0.21,0.76,0.26,1.15,0.39
			c-0.8,2.01-1,4.09-1,6.25c0.03,22.61,0.02,45.22,0.01,67.83c0,0.71,0.41,1.66-0.4,2.08c-0.77,0.4-1.43-0.43-1.94-0.83
			c-2.96-2.31-6.37-3.82-9.58-5.68c-2.09-1.22-4.23-2.47-6.16-3.97c-2.01-1.56-3.04-3.67-3.04-6.25c0-22.61,0-45.22,0-67.83
			C54.31,65.68,54.57,64.29,55.46,63.08z"/>
		<path class="st5" d="M142.47,89.35c-3.47,1.65-6.57,3.91-9.83,5.9c-3.65,2.24-7.23,4.61-10.8,6.98c-0.96,0.64-1.69,0.57-2.64-0.03
			c-6.52-4.14-13.07-8.22-19.62-12.32c-0.49-0.3-0.99-0.6-1.6-0.5c0.58-1.72,1.76-2.9,3.3-3.8c5.11-2.97,10.21-5.95,15.31-8.94
			c2.45-1.44,4.87-1.48,7.33-0.03c5.2,3.05,10.41,6.06,15.61,9.12C140.95,86.56,142.11,87.64,142.47,89.35z"/>
	</g>
</g>
</svg>
